# xmcd
#
# Track frame offsets:
#	150
#	18263
#	34757
#	51936
#	66572
#	79929
#	97823
#	113298
#	126066
#	140846
#	158127
#	173934
#	190337
#	204168
#	219424
#	233358
#	247302
#	263834
#	279392
#	297132
#
# Disc length: 4201 seconds
# Revision: 1
# Processed by: cddbd v1.5.2PL0 Copyright (c) Steve Scherf et al.
# Submitted via: dBpowerAMP V12.0
#
DISCID=1b106714
DTITLE=Various Artist - Country Radio July 2009
DYEAR=2009
DGENRE=Country
TTITLE0=Rascal Flatts - Summer Nights
TTITLE1=Trace Adkins - All I Ask For Anymore
TTITLE2=Phil Vassar - Bobbi With An I
TTITLE3=Aaron Lines - Sand
TTITLE4=Mac McAnally - You First
TTITLE5=Brooks and Dunn - Indian Summer
TTITLE6=Heidi Newfield - What Am I Waiting For
TTITLE7=Gord Bamford - Drinkin Buddy
TTITLE8=Brad Johner - I Want It
TTITLE9=Gretchen Wilson - If I Could Do It All Again
TTITLE10=Whitney Duncan - Skinny Dippin
TTITLE11=George Strait - Living For The Night
TTITLE12=Mark Chesnutt - She Never Got Me Over You
TTITLE13=Jason Aldean - Big Green Tractor
TTITLE14=Jake Owen - Eight Second Ride
TTITLE15=Dean Brody - Dirt Roads Scholar
TTITLE16=James Otto - Since You Brought It Up
TTITLE17=Megan Mullins - Long Past Gone
TTITLE18=Rankin Family The - Straight Into Love
TTITLE19=Cledus T Judd Feat  Brooks and Dunn - Garth Must Be Busy
EXTD=
EXTT0=
EXTT1=
EXTT2=
EXTT3=
EXTT4=
EXTT5=
EXTT6=
EXTT7=
EXTT8=
EXTT9=
EXTT10=
EXTT11=
EXTT12=
EXTT13=
EXTT14=
EXTT15=
EXTT16=
EXTT17=
EXTT18=
EXTT19=
PLAYORDER=
